<?xml version="1.0" encoding="UTF-8"?>
<svg width="471" height="471" viewBox="0 0 471 471" xmlns="http://www.w3.org/2000/svg">
    <g id="000000ff">
        <path id="path1" fill="#000000" stroke="none" d="M 158.108383 0.917206 C 183.772537 21.397217 209.2827 42.056824 234.869858 62.639496 C 241.337265 68.388275 250.345367 68.978546 257.941956 72.520203 C 263.896057 74.70166 269.336853 79.218536 276.009521 78.782257 C 306.832184 77.730042 337.654846 76.292816 368.477478 75.291931 C 350.794891 99.544556 332.675995 123.489227 315.301331 147.947174 C 314.043823 162.396088 314.582733 177.281311 309.552612 191.216949 C 315.019043 192.936432 320.511169 194.68161 325.695343 197.222351 C 320.049225 196.401123 314.480103 195.271881 308.885315 194.194 C 307.217133 197.325012 305.651642 200.507385 304.137451 203.741028 C 310.014526 207.282684 315.814636 211.080994 320.331543 216.316498 C 314.249146 213.262451 308.42337 209.74649 302.186981 207.000397 C 301.211731 208.71991 299.312592 212.158905 298.363007 213.878387 C 302.777222 218.318283 306.883514 223.066177 310.399536 228.275986 C 313.119934 233.485809 320.639465 233.383163 323.128906 238.721298 C 356.363983 310.247345 352.10376 397.633789 312.606628 465.849121 C 311.374725 469.365143 307.833099 470.597015 304.368408 470.340332 C 255.786148 469.159821 207.101257 470.879303 158.570328 469.416443 C 146.277191 467.029694 137.3974 454.813507 137.654037 442.469055 C 137.320404 359.599518 137.808014 276.704254 137.3974 193.80899 C 129.415833 197.632996 121.870583 202.252533 113.991676 206.256134 C 120.048416 199.12149 127.773338 193.783356 135.498245 188.650513 C 133.188477 183.569031 130.981354 178.436188 128.953888 173.226349 C 119.637794 175.638794 110.578346 178.949493 101.647209 182.491119 C 109.628777 176.383087 118.48291 171.558197 127.747665 167.708557 C 127.054733 158.957092 127.414032 150.154297 128.543259 141.428497 C 121.947556 141.171814 115.351868 141.094849 108.75618 140.735535 C 115.608521 138.502747 122.743156 137.476166 129.877792 136.603607 C 132.957489 128.416748 136.242508 120.127228 136.627472 111.273071 C 139.553177 73.803406 147.971024 37.026672 158.108383 0.917206 M 164.062454 19.036102 C 163.266861 40.465668 164.088104 61.946564 165.345673 83.324799 C 182.514984 71.750275 202.584351 64.94928 223.34668 64.51297 C 204.45784 48.293243 184.260147 33.587677 164.062454 19.036102 M 199.042709 82.760193 C 174.456436 91.973633 153.360504 111.375732 146.225861 137.193878 C 160.289825 140.376221 174.584763 144.251526 186.672577 152.41275 C 172.172333 150.46225 158.365021 144.636475 143.608124 144.148865 C 142.889526 150.641876 142.324905 157.134949 142.068268 163.679291 C 155.849915 162.858063 170.247513 161.087189 183.644211 165.373138 C 170.196198 166.733337 156.696838 167.836914 143.377151 170.351959 C 144.763016 174.586548 146.277191 178.769836 147.868362 182.953094 C 161.18808 178.487518 175.098038 175.407806 189.213333 175.664459 C 176.74054 179.873383 163.882813 182.97876 151.820648 188.34256 C 165.730637 206.512787 188.058441 214.879303 209.154388 221.500641 C 229.377731 227.454742 252.732117 230.842392 272.00589 220.089142 C 279.7565 216.188171 284.222076 208.540253 289.431885 201.970215 C 288.174347 201.354309 285.684906 200.122406 284.427368 199.480835 C 289.277893 200.148041 292.845215 197.992279 294.872681 193.578033 C 291.100067 193.116089 287.327423 192.67981 283.580444 192.2435 C 287.686707 191.550568 291.844299 190.960297 295.976227 190.29303 C 297.69574 184.467255 299.184265 178.615845 300.518799 172.687408 C 287.45575 163.217346 270.953674 161.241211 255.47818 164.808533 C 256.325104 161.395172 257.223358 158.007507 258.121613 154.645538 C 272.852814 149.897644 288.302673 153.003021 301.725006 160.009308 C 301.186066 140.324921 294.77002 120.563507 281.783966 105.549988 C 262.304871 82.298248 227.683914 70.877716 199.042709 82.760193 M 290.92041 88.047028 C 296.797485 100.802094 305.394989 111.991699 314.890747 122.231659 C 328.082123 110.888123 341.170807 99.108246 351.744476 85.223938 C 331.469788 85.32663 311.118103 85.993896 290.92041 88.047028 M 270.851044 234.717697 C 256.556091 240.440826 240.823959 239.82486 225.78476 238.490341 C 244.160309 257.995087 261.996887 278.218445 276.163513 301.05957 C 296.386871 332.113159 308.756989 367.60672 315.173035 403.972839 C 329.698914 352.54187 327.389191 296.23468 307.34549 246.574539 C 304.265778 240.646118 307.34549 234.332733 311.118103 229.636185 C 306.190582 225.324631 301.365723 220.859055 296.335541 216.650116 C 289.098236 224.195404 280.860046 231.150375 270.851044 234.717697 M 158.262344 226.376846 C 157.8004 293.257629 158.262344 360.112793 158.057037 426.967926 C 158.442001 433.66626 157.441101 442.520386 164.036789 446.652344 C 171.530716 450.861267 180.538849 449.064758 188.725723 449.526703 C 189.315979 417.24118 188.263763 384.955688 189.264664 352.695831 C 195.578049 349.333832 202.738358 349.308167 209.026062 352.721497 C 210.001312 384.955688 209.000397 417.215546 209.539352 449.449707 C 235.02388 449.167419 260.508362 449.860352 285.967224 449.141754 C 298.593994 448.936432 299.800201 433.768921 299.184265 424.273193 C 296.694855 379.822845 276.240509 338.529205 252.270172 301.829468 C 229.685715 268.235077 199.786957 234.717697 158.262344 226.376846 Z"/>
        <path id="path2" fill="#000000" stroke="none" d="M 186.723923 110.965118 C 197.143555 112.119995 207.819839 113.711182 217.187271 118.766998 C 229.018448 125.183075 238.052246 135.628387 245.366516 146.715271 C 242.748764 150.89856 240.131027 155.081787 237.48764 159.265076 C 228.710464 148.691437 219.830658 137.501862 207.33223 131.162811 C 198.734726 126.697266 188.982361 125.670685 179.563614 124.23349 C 181.668076 119.665253 184.106155 115.276703 186.723923 110.965118 Z"/>
    </g>
    <g id="ffde00ff">
        <path id="path3" fill="#ffde00" stroke="none" d="M 164.062454 19.036102 C 184.260147 33.587677 204.45784 48.293243 223.34668 64.51297 C 202.584351 64.94928 182.514984 71.750275 165.345673 83.324799 C 164.088104 61.946564 163.266861 40.465668 164.062454 19.036102 Z"/>
        <path id="path4" fill="#ffde00" stroke="none" d="M 199.042709 82.760193 C 227.683914 70.877716 262.304871 82.298248 281.783966 105.549988 C 294.77002 120.563507 301.186066 140.324921 301.725006 160.009308 C 288.302673 153.003021 272.852814 149.897644 258.121613 154.645538 C 257.223358 158.007507 256.325104 161.395172 255.47818 164.808533 C 270.953674 161.241211 287.45575 163.217346 300.518799 172.687408 C 299.184265 178.615845 297.69574 184.467255 295.976227 190.29303 C 291.844299 190.960297 287.686707 191.550568 283.580444 192.2435 C 287.327423 192.67981 291.100067 193.116089 294.872681 193.578033 C 292.845215 197.992279 289.277893 200.148041 284.427368 199.480835 C 285.684906 200.122406 288.174347 201.354309 289.431885 201.970215 C 284.222076 208.540253 279.7565 216.188171 272.00589 220.089142 C 252.732117 230.842392 229.377731 227.454742 209.154388 221.500641 C 188.058441 214.879303 165.730637 206.512787 151.820648 188.34256 C 163.882813 182.97876 176.74054 179.873383 189.213333 175.664459 C 175.098038 175.407806 161.18808 178.487518 147.868362 182.953094 C 146.277191 178.769836 144.763016 174.586548 143.377151 170.351959 C 156.696838 167.836914 170.196198 166.733337 183.644211 165.373138 C 170.247513 161.087189 155.849915 162.858063 142.068268 163.679291 C 142.324905 157.134949 142.889526 150.641876 143.608124 144.148865 C 158.365021 144.636475 172.172333 150.46225 186.672577 152.41275 C 174.584763 144.251526 160.289825 140.376221 146.225861 137.193878 C 153.360504 111.375732 174.456436 91.973633 199.042709 82.760193 M 186.723923 110.965118 C 184.106155 115.276703 181.668076 119.665253 179.563614 124.23349 C 188.982361 125.670685 198.734726 126.697266 207.33223 131.162811 C 219.830658 137.501862 228.710464 148.691437 237.48764 159.265076 C 240.131027 155.081787 242.748764 150.89856 245.366516 146.715271 C 238.052246 135.628387 229.018448 125.183075 217.187271 118.766998 C 207.819839 113.711182 197.143555 112.119995 186.723923 110.965118 Z"/>
        <path id="path5" fill="#ffde00" stroke="none" d="M 290.92041 88.047028 C 311.118103 85.993896 331.469788 85.32663 351.744476 85.223938 C 341.170807 99.108246 328.082123 110.888123 314.890747 122.231659 C 305.394989 111.991699 296.797485 100.802094 290.92041 88.047028 Z"/>
        <path id="path6" fill="#ffde00" stroke="none" d="M 158.262344 226.376846 C 199.786957 234.717697 229.685715 268.235077 252.270172 301.829468 C 276.240509 338.529205 296.694855 379.822845 299.184265 424.273193 C 299.800201 433.768921 298.593994 448.936432 285.967224 449.141754 C 260.508362 449.860352 235.02388 449.167419 209.539352 449.449707 C 209.000397 417.215546 210.001312 384.955688 209.026062 352.721497 C 202.738358 349.308167 195.578049 349.333832 189.264664 352.695831 C 188.263763 384.955688 189.315979 417.24118 188.725723 449.526703 C 180.538849 449.064758 171.530716 450.861267 164.036789 446.652344 C 157.441101 442.520386 158.442001 433.66626 158.057037 426.967926 C 158.262344 360.112793 157.8004 293.257629 158.262344 226.376846 Z"/>
    </g>
</svg>
